<svg width="200" height="200" viewBox="0 0 200 200" xmlns="http://www.w3.org/2000/svg"><title>moet-chandon</title><g fill="#000" fill-rule="evenodd"><path d="M104.672 108.344l-.772-.29h-.095c-.675 1.746-1.734 2.715-2.89 2.715-2.408 0-3.757-2.425-3.757-5.528 0-3.01 1.252-5.337 3.66-5.337.481 0 1.348.097 2.6 1.842.58.68.58 0 .58-.194l-.193-1.745c-.097-.679-.482-.29-.772-.194-.193.097-.482 0-.675-.194-.77-.485-1.54-.679-2.214-.679-2.6 0-4.817 2.91-4.817 6.5 0 3.589 2.216 6.5 5.01 6.5 1.829 0 3.467-1.067 4.334-3.007.193-.291.193-.291 0-.39zM162.465 98.643c-3.082 0-5.396 2.91-5.396 6.598 0 3.588 2.314 6.5 5.396 6.5 3.08 0 5.394-2.911 5.394-6.5 0-3.689-2.313-6.598-5.394-6.598zm0 12.03c-2.408 0-3.564-2.33-3.564-5.336 0-3.006 1.156-5.432 3.564-5.432 2.504 0 3.66 2.426 3.66 5.432 0 3.007-1.157 5.336-3.66 5.336zM40.81 98.643c-3.083 0-5.394 2.91-5.394 6.598 0 3.588 2.311 6.5 5.394 6.5 3.082 0 5.49-2.911 5.49-6.5 0-3.689-2.408-6.598-5.49-6.598zm0 12.03c-2.408 0-3.563-2.33-3.563-5.336 0-3.006 1.155-5.432 3.563-5.432 2.505 0 3.66 2.426 3.66 5.432 0 3.007-1.155 5.336-3.66 5.336zM110.642 111.448c.29 0 .29-.194.193-.388-.385-.388-.675-.581-.675-.873v-4.269c0-.096 0-.194.097-.194h4.045c.097 0 .193.098.193.194v4.27c0 .29-.385.484-.673.872-.194.194-.096.388.095.388h2.698c.287 0 .385-.194.192-.388-.387-.388-.674-.581-.674-.873v-9.895c0-.29.287-.486.674-.874.193-.194.095-.387-.192-.387h-2.698c-.192 0-.289.193-.095.387.288.388.673.583.673.874v3.977c0 .098-.095.098-.193.194h-4.045c-.097-.095-.097-.095-.097-.194v-3.977c0-.29.29-.486.675-.874.097-.194.097-.387-.193-.387h-2.695c-.195 0-.29.193-.195.387.387.388.772.583.772.874v9.895c0 .292-.385.485-.772.873-.095.194 0 .388.195.388h2.695zM148.98 99.03h-4.048c-.192 0-.287.194-.094.388.287.388.674.583.674.874v9.895c0 .292-.387.485-.674.873-.193.194-.097.388.095.388h4.047c2.695 0 5.586-2.522 5.586-6.207 0-3.396-2.505-6.21-5.586-6.21zm0 11.352c-1.734 0-1.83-.194-1.83-.291v-9.702s.096-.097.096-.193c.095 0 .095-.098 1.734-.098.962 0 3.66.486 3.66 5.24 0 3.201-1.639 5.044-3.66 5.044zM50.923 97.963c.482 0 .771-.387.771-.776 0-.485-.289-.777-.77-.777a.762.762 0 0 0-.77.777c0 .389.384.776.77.776zM53.332 97.963c.385 0 .77-.387.77-.776a.763.763 0 0 0-.77-.777c-.482 0-.77.292-.77.777 0 .389.288.776.77.776zM56.028 109.412l-1.06.872c-.192.097-.289.097-.384.097H51.213c-.096 0-.193 0-.193-.097v-4.56c0-.095.096-.194.193-.194h1.733c.096 0 .193 0 .29.098l.674.679c.29.194.385.095.385-.194v-2.232c0-.29-.096-.39-.385-.194l-.674.68c-.097.095-.193.095-.29.095h-1.733c-.096 0-.193-.095-.193-.194v-4.074c0-.097.096-.097.193-.097h3.275c.096 0 .192 0 .288.097l.771.677c.288.292.579.292.385-.193l-.577-1.552c0-.097-.096-.097-.193-.097h-6.26c-.29 0-.386.194-.193.291.289.484.674.68.674 1.066v9.8c0 .29-.385.485-.674.872-.193.194-.193.388.096.388h6.935c.095 0 .192 0 .192-.194.193-.387.578-1.65.578-1.65.193-.58-.193-.481-.482-.19zM65.275 111.448c.193 0 .29-.194.193-.388-.386-.388-.771-.485-.771-.777v-10.088s.096-.097.192-.097h2.023c.192 0 .289 0 .481.097.193.096.963.776.963.776.29.194.482.194.386-.194l-.29-1.553c-.095-.193-.095-.193-.287-.193h-8.573c-.096 0-.096 0-.192.193l-.385 1.553c-.096.388.096.388.481.194 0 0 .77-.68.963-.776.193-.097.289-.097.482-.097h2.022l.097.097v10.088c0 .291-.288.39-.674.777-.096.194 0 .388.192.388h2.697zM129.906 111.061l-.48-.485c-.192-.194-.386-.388-.386-.582l-2.986-9.798c0-.195 0-.389.385-.778.097-.194.192-.387-.193-.387h-2.793c-.385 0-.287.193-.192.387.385.388.385.583.289.874l-2.89 9.604c-.097.194-.193.485-.385.679l-.482.485c-.193.096-.29.388.097.388h2.504c.289 0 .289-.194.192-.291l-.482-.484c-.095-.194-.095-.485-.095-.583l.77-2.62h3.757l.77 2.62c0 .097 0 .39-.094.485l-.482.582c-.097.097-.097.291.192.291h2.89c.384 0 .289-.291.094-.387zm-6.74-4.753l1.54-4.851v-.194.194l1.445 4.85h-2.985zM88.296 110.769c-.481-.194-.866-.388-1.251-.68 0-.095-.675-.677-1.445-1.454.385-.582.578-1.165.578-1.746.095-.582-.578-.582-.578-.582-.097.582-.193.873-.674 1.649l-3.372-3.395c4.046-2.33 2.023-5.725-.578-5.725-2.215 0-4.43 2.522-1.541 5.626-4.238 1.94-2.986 7.277 1.349 7.277 1.444 0 2.889-.874 3.95-1.94.577.483.673.968.384 1.162-.385.39.097.485.29.485h2.89c.48.002.576-.483-.002-.677zm-7.32-11.156c2.312-.096 2.697 3.105-.192 4.27-2.602-2.33-1.253-4.27.192-4.27zm-1.83 10.089c-1.156-1.067-1.446-3.299 1.06-4.461l3.852 3.782c-1.252 1.165-3.274 2.134-4.912.679zM33.393 111.061l-.578-.582c-.192-.097-.289-.39-.385-.485l-1.638-9.702c0-.29.193-.485.579-.873.192-.194.096-.388-.193-.388h-2.215c-.385 0-.385.098-.578.388l-1.541 4.95-1.541-4.95c-.193-.29-.193-.388-.579-.388h-2.119c-.192 0-.29.194-.097.388.29.292.579.583.482.873l-1.541 9.799v-.194c0 .194-.096.388-.288.583l-.579.582c-.192.096-.192.388.193.388h2.6c.289 0 .289-.291.193-.388l-.578-.485c-.096-.194-.192-.485-.096-.68l-.096.195 1.445-8.44 2.408 7.47c.096.388.193.388.29 0l2.408-7.47v-.194l1.444 8.537c0 .096 0 .388-.192.582l-.579.485c-.096.096-.096.388.193.388H33.2c.386-.002.386-.293.193-.389zM140.984 111.353v-11.061c0-.29.289-.486.674-.874.192-.194.097-.387-.193-.387h-2.408c-.287 0-.385.193-.192.387.385.388.674.583.674.874v6.015s-3.564-6.5-3.853-6.889c-.192-.29-.192-.387-.577-.387h-2.216c-.192 0-.29.193-.192.387.385.388.77.583.77.874v9.895c0 .292-.385.485-.77.873-.097.194 0 .388.192.388h2.504c.29 0 .385-.194.193-.388-.385-.388-.675-.581-.675-.873v-8.635l5.589 9.994c.192.29.48.194.48-.193zM178.55 111.353v-11.061c0-.29.288-.486.674-.874.192-.194.096-.387-.193-.387h-2.408c-.288 0-.385.193-.193.387.387.388.675.583.675.874v6.015s-3.563-6.5-3.853-6.889c-.193-.29-.193-.387-.578-.387h-2.215c-.193 0-.29.193-.193.387.385.388.77.583.77.874v9.895c0 .292-.385.485-.77.873-.097.194 0 .388.193.388h2.504c.289 0 .385-.194.192-.388-.385-.388-.674-.581-.674-.873v-8.635l5.588 9.994c.192.29.48.194.48-.193zM130.87 81.278c0-.194 0-.292-.097-.388 0 .096 0 .194-.095.291-.096.292-.385.388-.577.388.095 0 .192.097.287.097.193 0 .482-.194.482-.388zM134.243 85.74c-.195.195-.387.389-.58.291 0 .097.097.097.193.097.29.096.482-.097.58-.388 0-.098-.097-.292-.193-.389v.39z"/><path d="M134.338 84.964c-.385-.194-.867 0-1.06.388-2.023-1.067-3.66-1.164-4.238-1.164.963-.873 1.446-1.842 1.638-2.135.192-.096.385-.194.577-.484.193-.388 0-.873-.482-1.067-.385-.194-.867 0-1.06.388-.094.291-.094.583.098.776-3.565 3.396-7.513 3.203-8.959 2.135l3.083-2.717c-.867-.582-2.216-1.455-3.757-1.843-3.757-.873-9.15.388-9.728 6.112l.674.097c-1.06 1.843-3.95 1.455-5.105.776l-.193.291c.58.292 1.734.582 2.89.486 1.252-.097 2.216-.582 2.697-1.553l1.637.292a4.736 4.736 0 0 1-2.697 2.328c-1.734.679-3.755.388-5.97-.97l-.578.097c5.875 3.783 9.246-.098 9.728-1.65l-.964-.194c.193-3.783 4.624-5.045 8.092-3.59l-1.637 3.3s1.444 1.746 4.527 1.552c2.311-.194 3.66-1.165 6.068-1.067 1.154 0 2.986.388 3.757.679 0 .097.095.194.287.291.385.194.867 0 1.06-.388.192-.487 0-.972-.385-1.166zm-4.432-3.978c.195-.29.482-.485.772-.29.29.096.482.485.29.777-.097.29-.482.485-.772.29-.29-.097-.384-.485-.29-.777zm-15.122.486c-1.541.775-2.504 2.134-2.6 3.88l-1.445-.29c.287-1.94 1.06-3.396 2.504-4.463 2.119-1.455 4.914-1.552 6.84-1.067 1.154.292 2.215.777 3.467 1.553l-1.252 1.164c-2.215-1.65-5.297-1.942-7.514-.777zm6.166.387c.385.194.674.388 1.06.583l-2.409 2.134 1.35-2.717zm8.669 3.299c-1.349-.096-2.408.194-3.468.485-.772.194-1.638.486-2.697.486-2.216.194-3.562-.777-3.95-1.164l1.157-.97c1.444 1.164 5.586 1.65 9.343-2.037h.097c.095.096.095.096.192.096-.481.777-1.06 1.456-2.12 2.426 0 0 2.408-.194 5.008 1.164v.194c-.77-.389-2.408-.68-3.562-.68zm4.911.873c-.095.292-.482.388-.77.292-.29-.194-.482-.486-.29-.874.097-.291.483-.387.773-.291.287.194.385.583.287.873zM70.092 81.278c0-.194 0-.292.096-.388 0 .096 0 .194.095.291.097.292.386.388.579.388-.096 0-.193.097-.288.097-.194 0-.482-.194-.482-.388zM66.72 85.74c.193.195.385.389.579.291 0 .097-.096.097-.193.097-.288.096-.482-.097-.578-.388 0-.098.096-.292.193-.389l-.001.39z"/><path d="M66.238 86.128c.193.388.675.582 1.06.388.192-.097.288-.194.288-.292.771-.29 2.6-.679 3.757-.679 2.408-.097 3.757.873 6.068 1.067 3.083.194 4.527-1.552 4.527-1.552L80.3 81.76c3.468-1.455 7.898-.194 8.091 3.59l-.962.193c.482 1.552 3.852 5.433 9.728 1.65l-.578-.098c-2.216 1.359-4.238 1.65-5.972.97a4.737 4.737 0 0 1-2.696-2.327l1.637-.291c.482.97 1.446 1.454 2.697 1.552 1.156.096 2.312-.194 2.89-.485l-.193-.292c-1.156.68-4.046 1.067-5.104-.775l.674-.098c-.578-5.724-5.971-6.985-9.728-6.112-1.542.388-2.89 1.261-3.757 1.843l3.082 2.717c-1.445 1.067-5.394 1.26-8.958-2.134.193-.194.193-.486.097-.777-.193-.388-.674-.582-1.06-.388-.48.194-.674.68-.48 1.067.192.29.385.388.577.485.193.291.675 1.262 1.638 2.135-.577 0-2.215.096-4.238 1.163-.192-.388-.674-.582-1.059-.388-.385.194-.58.682-.388 1.167zm4.528-4.366c-.29.194-.674 0-.771-.29-.193-.292 0-.68.288-.777.29-.194.579 0 .771.29.096.293 0 .68-.288.777zm7.898.485l-1.252-1.164c1.252-.776 2.311-1.261 3.468-1.552 1.926-.486 4.72-.388 6.838 1.067 1.444 1.067 2.216 2.522 2.504 4.462l-1.445.29c-.095-1.746-1.059-3.104-2.6-3.88-2.215-1.163-5.297-.871-7.513.777zm2.697 2.33l-2.408-2.135c.385-.194.675-.389 1.059-.583l1.35 2.717zm-13.582 1.26v-.194c2.601-1.358 5.01-1.164 5.01-1.164-1.06-.97-1.639-1.649-2.12-2.426.096 0 .096 0 .193-.096h.096c3.757 3.686 7.898 3.201 9.343 2.037l1.156.97c-.385.388-1.734 1.359-3.95 1.164-1.059 0-1.926-.29-2.696-.486-1.06-.29-2.12-.581-3.467-.485-1.156.001-2.793.292-3.565.68zm-1.059-.679c.29-.096.674 0 .771.291.193.388 0 .68-.288.874-.29.096-.675 0-.771-.292-.097-.29 0-.679.288-.873zM99.662 83.606c0-.097 0-.29.192-.388.096-.098.386-.194.676-.194.192 0 .482.096.577.194.193.096.193.29.193.388 0 .388-.385.679-.77.679-.29 0-.579-.097-.676-.29-.192-.098-.192-.195-.192-.39zm.868.485c.287 0 .577-.193.577-.485 0-.194-.289-.486-.577-.486-.386 0-.676.292-.676.486 0 .291.29.485.676.485zM105.152 84.77c0-.194.192-.389.387-.389.094 0 .287.194.287.39 0 .193-.193.29-.287.29-.195 0-.387-.097-.387-.29zm.29.485c.29 0 .482-.194.482-.485s-.193-.485-.482-.485c-.193 0-.482.194-.482.485 0 .29.29.485.482.485zM101.782 83.994c0-.193.192-.388.289-.388.193 0 .385.194.385.388s-.192.29-.385.29c-.097 0-.29-.096-.29-.29zm.289.485c.287 0 .48-.29.48-.485 0-.29-.193-.485-.48-.485-.193 0-.482.194-.482.485 0 .194.29.485.482.485zM95.424 85.06c-.096 0-.29-.096-.29-.29 0-.194.193-.389.29-.389.193 0 .385.194.385.39 0 .193-.192.29-.385.29zm.578-.29c0-.291-.29-.485-.482-.485-.29 0-.482.194-.482.485 0 .29.193.485.482.485.193 0 .482-.194.482-.485zM98.892 84.285c-.193 0-.385-.097-.385-.29 0-.194.192-.39.385-.39.096 0 .289.195.289.39 0 .193-.193.29-.29.29zm.482-.29c0-.292-.29-.486-.482-.486-.29 0-.482.194-.482.485 0 .194.192.485.482.485.192 0 .482-.291.482-.485zM97.928 84.381c-.096.194-.385.292-.674.39-.482.096-.867-.098-.867-.292-.096-.29.192-.582.674-.68.289-.096.578-.096.771 0 .096.098.096.195.096.291.097.098.097.195 0 .291zm-.096-.29c0-.193-.386-.29-.77-.193-.29.096-.58.29-.58.484.097.194.386.292.772.194.386-.097.578-.291.578-.485zM103.033 84.091c0-.097 0-.193.096-.29.193-.097.482-.097.77 0 .482.097.773.387.675.679 0 .194-.385.389-.867.291-.29-.097-.578-.194-.674-.389-.095-.097-.095-.194 0-.291zm.675.485c.385.097.674 0 .772-.194 0-.194-.29-.388-.58-.484-.385-.097-.77 0-.77.193 0 .194.193.388.578.485zM106.983 82.053l-.674-.581-.193.581s.097 0 .29-.29c0 0 .287.194.577.29zM93.979 82.053l.674-.581.193.581s-.096 0-.289-.29c0 0-.289.194-.578.29zM93.112 81.762l-.578-.582.578-.291s0 .096-.288.291c0 0 .192.292.288.582zM107.85 81.762l.578-.582-.578-.291s0 .096.29.291c0 0-.193.292-.29.582zM108.814 79.725c0 .194-.195.388-.387.485h-.385c.096.097.192.194.385.194.192 0 .387-.194.387-.486v-.193zM100.625 70.8s-.192.388-.095.679l.385-.874h-.771c0 .001.096.194.48.194zM101.878 71.673s-.194.097-.194.486c0 0-.385-.097-.672 0l.866.29v-.776zM99.277 72.159c0-.39-.193-.486-.193-.486v.776l.867-.29c-.29-.098-.674 0-.674 0zM100.53 76.815c.192 0 .385-.194.385-.486 0-.29-.193-.485-.385-.485-.29 0-.482.194-.482.485 0 .292.192.486.482.486zm0-.777c.095 0 .287.098.287.291 0 .194-.192.29-.287.29-.193 0-.386-.096-.386-.29 0-.193.193-.29.386-.29zM100.53 77.785c.192 0 .385-.194.385-.485s-.193-.485-.385-.485c-.29 0-.482.194-.482.485 0 .29.192.485.482.485zm0-.776c.095 0 .287.096.287.291 0 .194-.192.29-.287.29-.193 0-.386-.096-.386-.29 0-.194.193-.291.386-.291z"/><path d="M100.915 78.27c0-.292-.193-.486-.385-.486-.29 0-.482.194-.482.486 0 .29.192.485.482.485.192 0 .385-.194.385-.485zm-.771 0c0-.194.192-.292.386-.292.095 0 .287.098.287.292 0 .194-.192.29-.287.29-.193 0-.386-.096-.386-.29z"/><path d="M108.332 80.696h.095c.481 0 .772-.291.772-.68 0-.485-.29-.776-.772-.776-.193 0-.385.097-.578.194.097-.097.097-.097.097-.194 0-.291-.29-.582-.58-.582-.095 0-.192.098-.287.098.095-.098.095-.194.095-.292 0-.29-.193-.581-.482-.581-.193 0-.287.096-.385.096.097-.096.097-.194.097-.29 0-.292-.193-.486-.482-.486-.193 0-.29 0-.385.097 0-.097.095-.194.095-.291 0-.29-.29-.486-.578-.486-.193 0-.29 0-.385.194v-.291c0-.291-.193-.583-.482-.583a.733.733 0 0 0-.482.194c.097 0 .097-.096.097-.194 0-.29-.29-.582-.58-.582-.094 0-.287.097-.384.194v-.194c0-.29-.193-.485-.482-.485-.193 0-.288.097-.385.194.096-.29.096-.484.096-.776 0-.68-.387-1.359-.963-1.553v-.096l1.156.485v-2.038l-1.446.68.674-1.456h-2.022l.674 1.456-1.444-.68v2.038l1.252-.485v.096c-.675.194-1.06.873-1.06 1.553 0 .29 0 .485.193.776-.193-.096-.289-.194-.482-.194-.29 0-.482.194-.482.485v.194c-.096-.097-.288-.194-.385-.194-.29 0-.578.292-.578.582 0 .097 0 .194.096.194a.733.733 0 0 0-.482-.194c-.289 0-.481.292-.481.583v.291c-.097-.194-.193-.194-.386-.194-.289 0-.577.194-.577.486 0 .096.096.194.096.291-.096-.097-.193-.097-.385-.097-.29 0-.482.194-.482.486 0 .096 0 .194.096.29-.096 0-.193-.096-.385-.096-.29 0-.482.29-.482.581 0 .098 0 .194.096.292-.096 0-.193-.098-.289-.098-.29 0-.578.29-.578.582 0 .097 0 .097.095.194-.192-.097-.385-.194-.577-.194-.482 0-.771.291-.771.777 0 .388.289.679.77.679h.097l-.77.388 1.059 1.067c-.096 0-.096.096-.096.194 0 .388.288.582.578.582l1.348 3.395c.29.775 2.697 1.358 5.684 1.358 2.984 0 5.393-.583 5.683-1.358h.096l1.347-3.395c.29 0 .58-.194.58-.582 0-.098 0-.194-.097-.194l1.06-1.067-.765-.388zm.095-1.262c.289 0 .58.194.58.582 0 .291-.29.485-.58.485-.288 0-.578-.194-.578-.485 0-.388.29-.582.578-.582zm-.385 1.165l-.386-.194c-.192-.194-.385-.486-.577-.68.095 0 .192.097.287.097.193 0 .29-.097.385-.194 0 .097-.095.194-.095.388s.194.485.386.583zm-.675-1.747c.193 0 .385.194.385.388s-.192.388-.385.388c-.192 0-.385-.194-.385-.388.001-.194.194-.388.385-.388zm-.674-.775c.192 0 .387.194.387.387 0 .194-.195.39-.387.39-.288 0-.385-.195-.385-.39 0-.194.097-.387.385-.387zm.192 1.357l-.48-.485c.095 0 .193.097.288.097.097 0 .192-.097.29-.097-.098.097-.098.194-.098.291v.194zm-.961-2.037c.192 0 .289.097.289.292 0 .29-.097.388-.29.388-.289 0-.384-.098-.384-.388 0-.195.094-.292.385-.292zm.289 1.261c-.194-.096-.387-.291-.482-.387h.193c.095 0 .192 0 .289-.097-.097.097-.097.194-.097.29 0 .097 0 .194.097.194zm-1.156-1.94c.192 0 .385.097.385.29 0 .292-.193.388-.385.388-.193 0-.385-.096-.385-.387 0-.194.192-.29.385-.29zm.385 1.261c-.193-.096-.385-.29-.578-.388h.193c.095 0 .287 0 .385-.096-.097 0-.097.096-.097.194 0 .096 0 .194.097.29zm-.867-1.164c-.095.096-.095.096-.095.194 0 .194.095.291.095.387-.193-.193-.385-.29-.578-.485.095 0 .095.098.193.098.095 0 .29-.098.385-.194zm-.385-.777c.192 0 .385.194.385.389 0 .194-.193.388-.385.388-.193 0-.385-.194-.385-.388s.192-.389.385-.389zm-.482.098c-.095.096-.095.193-.095.29 0 .098.095.292.095.389-.193-.194-.385-.292-.578-.486l.095.097a.527.527 0 0 0 .483-.29zm-.483-.679c.29 0 .387.194.387.388s-.097.388-.387.388c-.192 0-.385-.194-.385-.388s.193-.388.385-.388zm4.24 4.948l-.097.581c-1.349-2.328-5.009-4.462-5.779-4.948v-.388c.675.292 3.95 2.038 5.876 4.755zm-1.252.484l-.674 1.65h1.444c0 .096.097.194.097.291-.482.194-1.156.388-1.83.194-.675-.097-.868-.485-.868-.68.097 0 .097-.097.097-.097.095-.096 0-.194 0-.29l-.097-.098c.097 0 .193 0 .29.098.287.096.385.29.385.388.482-.194.577-.68.482-.97-.097-.195-.29-.389-.675-.389.288-.97-.097-1.455-.192-1.455v-.096l-.097.096c-.578.097-.867 1.068-.867 1.068-.385-.098-.578 0-.77.096-.193.194-.29.777-.097 1.164.097-.097.193-.29.482-.29.192 0 .29 0 .29.096-.098 0-.195.096-.29.194 0 .097 0 .194.095.29-.095.097-.288.097-.48.097-.867 0-1.734-.485-2.216-1.067.095 0 .095 0 .193-.097l1.444.777V79.53l-1.444.776v-.097l.674-1.455v-2.232c.77.388 4.43 2.62 5.78 5.045v.194l-.096.097-1.06-.97zm.867 1.068c-.097.096-.097.194-.097.388h-1.156l.482-1.165.77.777zm-.675 1.94h-.386c0-.097.096-.389.096-.583.097-.096.29-.096.385-.096 0 .097-.191.388-.095.68zm-.579 0c-.193 0-.385 0-.482-.097 0-.097.195-.292.097-.486h.578c-.095.098-.288.292-.193.583zm-.674-.097c-.095 0-.288-.097-.48-.097a.753.753 0 0 0 .192-.485c.193 0 .288 0 .48.096a.753.753 0 0 0-.192.486zm-.577-.194c-.095-.097-.29-.097-.385-.194 0 0 .192-.292.192-.582.097.097.193.194.385.29a.748.748 0 0 0-.192.486zm-.483-.29c-.192-.097-.287-.292-.385-.389a.741.741 0 0 0 .193-.485h.289c0 .097 0 .194.095.29 0 0-.287.292-.192.583zm-.48-.39c-.097.097-.194.097-.387.097 0-.096.097-.291 0-.582.097-.096.193-.096.29-.096.096 0 .192 0 .192.096 0 .097-.095.194-.095.486zm-.097-.97c0-.097.29-.193.482-.097.193 0 .385.194.385.292-.096.096-.289.194-.481.096-.289 0-.386-.194-.386-.29zm1.542.097c0-.096-.193-.29-.482-.387h-.385c.095-.194.29-.874.192-1.359-.289.388-.481 1.165-.481 1.359-.095-.097-.193-.194-.288-.194-.29-.098-.58-.098-.674.096-.097-.291 0-1.26.867-.679 0 0 .095-1.067.77-1.261 0 0 .482.485.097 1.552.96-.097.576.777.384.873zm-2.024 1.067c-.095 0-.288 0-.482-.096.097 0 .194-.291.097-.582h.481c.001.097-.096.388-.096.678zm-.577-.096c-.867-.097-1.541-.485-1.926-.873-.482.388-1.156.776-2.023.873.095-.291-.097-.485-.097-.582.674-.096 1.541-.583 2.023-1.164h.097c.482.581 1.348 1.067 2.021 1.164 0 .097-.193.29-.095.582zm-4.624-.582h.481c-.096.29 0 .582.096.582-.193.096-.385.096-.48.096 0-.29-.097-.581-.097-.678zm.193-.195c-.193 0-.385 0-.482-.096.096-.098.096-.194.096-.292-.096-.096-.193-.193-.29-.193 0-.097.096-.097.29-.097.29 0 .385.194.482.29.192-.387.095-.97-.096-1.163-.193-.097-.385-.194-.771-.097 0 0-.289-.97-.867-1.067l-.096-.096v.096c-.097 0-.482.486-.192 1.455-.386 0-.579.194-.579.388-.193.291-.096.777.385.97 0-.097.096-.29.385-.387.096-.098.193-.098.289-.098l-.096.098c0 .096-.096.194 0 .29 0 0 0 .098.096.194 0 .097-.193.485-.867.582-.675.096-1.35 0-1.83-.194 0-.097.096-.194.096-.291h1.445l-.674-1.65-1.06.97-.095-.097v-.194c1.348-2.425 5.008-4.657 5.779-5.045v2.232l.674 1.455v.097l-1.445-.776v2.328l1.445-.777c.096.097.096.097.193.097-.481.583-1.348 1.068-2.215 1.068zm-.771.195c0-.096.096-.096.192-.096.097 0 .193 0 .29.096-.096.29 0 .485 0 .582-.193 0-.29 0-.385-.097 0-.292-.097-.388-.097-.485zm-.578.29c.096-.096.096-.193.096-.29h.29c0 .194.095.388.192.485-.096.097-.193.292-.385.388.096-.291-.193-.582-.193-.582zm-.482.388c.193-.096.29-.193.385-.29 0 .29.193.582.193.582-.096.096-.29.096-.385.194a.743.743 0 0 0-.193-.486zm-.577.195c.192-.096.289-.096.482-.096 0 .194.095.388.192.485-.192 0-.385.097-.482.097a.744.744 0 0 0-.192-.486zm-.675 0h.578c-.096.194.096.388.096.486-.096.097-.289.097-.482.097.098-.292-.095-.486-.192-.583zm-.48-.097c.095 0 .288 0 .385.096 0 .194.096.486.096.583h-.385c.095-.291-.097-.582-.097-.68zm2.6-.97c-.192.097-.385 0-.482-.097 0-.098.193-.292.386-.292.193-.096.481 0 .481.098 0 .096-.096.29-.385.29zm-.675-2.62c.674.194.771 1.261.771 1.261.867-.582.963.388.867.68-.096-.195-.385-.195-.674-.097-.096 0-.193.096-.289.194 0-.194-.192-.97-.482-1.359-.095.485.097 1.165.193 1.359h-.385c-.289.096-.482.29-.482.387-.193-.096-.578-.97.385-.872-.385-1.068.096-1.553.096-1.553zm-2.504 2.329l.771-.777.482 1.165H93.98c-.001-.194-.001-.292-.097-.388zm7.032-1.261c0 .194-.193.388-.385.388-.29 0-.482-.194-.482-.388s.192-.388.482-.388c.192 0 .385.193.385.388zm-.675-1.36h.482l-.192.68-.29-.68zm.482.777h-.096l.289-.97h-.867l.29.97h-.098l-.577-1.164h1.637l-.578 1.164zm-1.156-1.357v-3.202c.096 0 .193.096.193.096v3.105h-.193zm.385 0v-3.008c.193.096.386.096.579.096.095 0 .287 0 .482-.096v3.008h-1.06zm1.253 0V75.65s.095-.096.193-.096v3.202h-.193v-.001zm-.674-3.105c-.676 0-1.156-.291-1.349-.873.193 0 .674-.194 1.349-.194.577 0 1.06.194 1.252.194-.193.582-.675.873-1.252.873zm-1.349 4.85l.674.194-.674.194v-.388zm-.193.68l.962-.292-1.155.583v-1.553l1.155.582h-.096l-.866-.291v.97zm2.794-.292l-.675-.194.675-.194v.388zm.192-.68l-.867.292h-.095l1.155-.582v1.553l-1.155-.583.962.291v-.97zm.771-4.558v.194c0 .097 0 .291.095.388-.192-.194-.482-.291-.674-.388h.192c.098 0 .29-.097.387-.194zm-.387-.68c.193 0 .387.097.387.291 0 .292-.194.388-.387.388-.192 0-.385-.096-.385-.388.001-.194.193-.291.385-.291zm-.384.777c-.192-.097-.289-.194-.385-.194v-.194c.095 0 .193-.097.193-.292v.194c0 .195.096.39.192.486zm-.096-2.037c-.194 0-.481-.097-.772-.097v-.777c.386.195.676.485.772.874zm-2.986-.97v-1.456l1.252.581c0-.097.096-.097.192-.194l-.578-1.26h1.445l-.58 1.26c.097.097.193.097.193.194l1.254-.581v1.455l-1.254-.582v.388h-.673v-.388l-1.251.582zm1.06.096v.777c-.386 0-.675.097-.868.097.097-.389.385-.68.867-.874zm-.964 1.358v-.29c.095 0 .578-.097 1.156-.097V72.74h.673v1.067c.58 0 1.061.097 1.156.097v.29c-.192-.096-.77-.193-1.444-.193-.77 0-1.348.097-1.541.194zm0 .194c.192 0 .77-.194 1.542-.194.674 0 1.252.098 1.444.194 0 .098-.095.194-.095.194-.194 0-.772-.096-1.348-.096-.676 0-1.253.096-1.446.096 0 .001-.097-.096-.097-.194zm.193.873v-.194c0 .194.096.292.193.292v.194c-.097 0-.193.096-.386.194a.744.744 0 0 0 .193-.486zm-.579-.291c.193 0 .386.097.386.291 0 .292-.193.388-.386.388-.192 0-.385-.096-.385-.388 0-.194.193-.291.385-.291zm-.385.873v-.194c.096.097.29.194.385.194h.193c-.193.097-.482.194-.674.388.096-.096.096-.29.096-.388zm-.481-.387c.192 0 .385.194.385.388s-.193.388-.385.388c-.29 0-.385-.194-.385-.388s.095-.388.385-.388zm-.385.97c0-.097 0-.194-.096-.291a.53.53 0 0 0 .481.29l.097-.096c-.192.194-.386.29-.578.388-.001 0 .096-.194.096-.291zm-.578-.389c.192 0 .385.194.385.389 0 .194-.193.388-.385.388-.193 0-.385-.194-.385-.388-.001-.194.191-.389.385-.389zm-.386.777c.096.096.29.194.385.194.096 0 .096-.098.193-.098-.193.194-.386.292-.579.485 0-.096.096-.193.096-.387.002-.098.002-.098-.095-.194zm-.481-.097c.193 0 .385.097.385.29 0 .292-.192.388-.385.388s-.385-.096-.385-.387c-.001-.194.192-.29.385-.29zm-.386.776c.096.096.29.096.385.096h.193c-.193.098-.386.292-.579.388.096-.096.096-.194.096-.29.002-.098.002-.194-.095-.194zm-.48-.097c.288 0 .384.097.384.292 0 .29-.096.388-.385.388-.192 0-.29-.098-.29-.388 0-.195.097-.292.29-.292zm-.29.776c.096.097.192.097.29.097h.192c-.096.096-.289.29-.482.387.096 0 .096-.096.096-.193s0-.194-.096-.29zm4.624-2.522v.388c-.772.485-4.335 2.62-5.78 4.948l-.096-.581c1.926-2.718 5.201-4.464 5.876-4.755zm-5.395 3.298c.096 0 .192.097.289.097.096 0 .193-.097.29-.097l-.483.485v-.194c0-.096 0-.194-.096-.291zm.289-.872c.29 0 .385.194.385.387 0 .194-.096.39-.385.39-.193 0-.385-.195-.385-.39 0-.194.192-.387.385-.387zm-.673.775c.192 0 .385.194.385.388s-.193.388-.385.388c-.193 0-.386-.194-.386-.388s.192-.388.386-.388zm-.29 1.164c0-.194-.096-.29-.096-.388.095.097.192.194.386.194.095 0 .192-.097.288-.097-.193.194-.385.485-.579.68l-.385.194c.193-.098.385-.39.385-.583zm-.77.485c-.29 0-.578-.194-.578-.485 0-.388.288-.582.577-.582.29 0 .578.194.578.582 0 .291-.288.485-.578.485zm-.29.582l1.06-.388.096 1.067c-.192 0-.29.097-.385.194l-.771-.873zm1.156 1.65c-.192 0-.385-.097-.385-.388 0-.194.193-.388.385-.388.193 0 .385.194.385.388 0 .29-.191.388-.385.388zm.385.291c.193 0 .29.096.482.096-.097.292.096.583.193.68h-.386l-.289-.776zm11.558 3.686c-.865.388-2.695.68-4.814.68-2.217 0-4.046-.292-4.913-.68v-.096c0-.583 2.215-.97 4.913-.97 2.6 0 4.814.387 4.814.97v.096zm.195-.194c-.097-.581-2.314-1.067-5.01-1.067-2.793 0-5.009.486-5.105 1.067-.192-.096-.29-.29-.29-.387 0-.68 2.41-1.261 5.396-1.261 2.888 0 5.296.581 5.296 1.26 0 .097-.095.291-.287.388zm.577-.679c-.577-.776-2.89-1.26-5.683-1.26-2.697 0-5.009.485-5.587 1.164l-.675-1.65c.867.194 2.408.097 3.18-.776v-.096c.77.388 2.408.096 3.179-.68.674.777 2.311 1.068 3.082.68v.096c.77.873 2.312.97 3.179.776l-.675 1.746zm.77-2.037h-.386c.097-.097.29-.388.193-.68.192 0 .29-.096.482-.096l-.29.776zm.674-1.067c-.193 0-.385-.097-.385-.388 0-.194.192-.388.385-.388.192 0 .387.194.387.388 0 .29-.195.388-.387.388zm.387-.776c-.097-.098-.195-.194-.387-.194l.096-1.067 1.06.388-.77.873z"/><path d="M92.534 80.21c-.192-.097-.385-.29-.385-.485v.194c0 .29.193.486.385.486.193 0 .29-.097.385-.194l-.385-.001zM71.536 125.322h.578c1.156 0 1.349-.097 1.541-.485.193-.388.193-.485.289-.485.096 0 .192 0 .192.097 0 .194-.29.776-.482 1.553-.192.775-.192 1.067-.385 1.067-.096 0-.096-.098-.096-.194v-.584c0-.483-.096-.582-1.06-.582h-.673c-.772 2.426-.964 2.911-.964 3.202 0 .193.192.39.578.39.289 0 .481 0 .481.095 0 .097-.095.194-.289.194-.193 0-.482-.096-.964-.096-.866 0-1.059.096-1.348.096-.096 0-.192 0-.192-.194 0-.096.096-.096.096-.096.674-.097.77-.097.867-.679 1.541-5.336 1.734-5.822 1.734-6.112 0-.196 0-.291-.29-.291-.192-.098-.288-.098-.288-.194 0-.098 0-.098.096-.098h3.95c.481 0 .481 0 .481.098 0 0-.097.29-.29 1.067-.192.776-.288.873-.481.873 0 0-.096-.097-.096-.291v-.776c0-.388-.192-.68-1.156-.68h-.963l-.866 3.105zM75.581 128.136c0-1.359.964-3.493 1.831-3.493.482 0 .77.388.77 1.261 0 1.359-.963 3.493-1.83 3.493-.481-.001-.77-.39-.77-1.261zm-.577-.388c0 1.26.482 1.94 1.349 1.94 1.348 0 2.408-1.844 2.408-3.396 0-1.163-.482-1.94-1.349-1.94-1.349-.001-2.408 1.844-2.408 3.396zM79.723 129.494l.675-1.844c.482-1.358.674-2.231.674-2.425 0-.194 0-.291-.192-.291-.096 0-.386.291-.675.777-.385.485-.385.485-.482.485h-.095c0-.29.962-1.843 1.733-1.843.29 0 .482.194.482.485 0 .582-.482 1.552-.578 2.038h.096c.385-.778 1.542-2.523 2.601-2.523.288 0 .578.194.578.582 0 .485-.193.679-.771 2.33-.482 1.26-.482 1.454-.482 1.552 0 .194 0 .194.097.194.192 0 .385-.098.674-.486.482-.679.385-.873.482-.873.096 0 .095.098.095.098 0 .29-.962 1.842-1.637 1.842-.385 0-.481-.194-.481-.486 0-.388.192-.968.481-1.649.675-1.648.77-2.037.77-2.328 0-.29-.095-.39-.192-.39-.482 0-1.349.971-2.216 2.524-.289.485-.77 1.648-.963 2.037 0 .194 0 .194-.193.194h-.48zM86.177 128.523c0-1.553 1.638-3.978 2.696-3.978.385 0 .482.194.482.485 0 .873-2.023 4.074-2.793 4.074-.193 0-.385-.193-.385-.581zm3.467-3.978c-.192-.096-.385-.194-.674-.194-1.445 0-3.468 2.038-3.468 4.172 0 .873.29 1.164.771 1.164.579 0 1.35-.873 2.409-2.523h.095c-.385 1.067-.481 1.65-.481 2.038 0 .291.095.485.289.485.482 0 .963-.68 1.349-1.358.192-.292.288-.486.288-.582 0-.097-.096-.097-.096-.097-.096 0-.096.097-.385.485-.385.679-.482.873-.674.873-.096 0-.096-.097-.096-.194 0-.291 1.734-5.336 2.023-6.306.192-.583.192-.679.192-.679v-.097c-.095 0-.481.387-1.155.387-.192 0-.386 0-.386.098 0 .096.096.096.29.096.192.097.288.195.288.29 0 .098 0 .195-.096.389l-.483 1.553zM93.69 124.545c.289 0 .385.194.385.485 0 .292 0 1.746-2.215 2.134.385-1.746 1.252-2.62 1.83-2.62zm1.542-1.842c.192-.097.289-.194.289-.39 0-.194-.096-.387-.29-.387-.192 0-.384.193-.674.485l-1.348 1.358h.289l1.734-1.066zm-.579 2.62c0-.486-.192-.971-.867-.971-1.156 0-2.696 1.65-2.696 3.686 0 1.067.385 1.65 1.06 1.65.481 0 .962-.388 1.348-.68.385-.484.77-1.066.77-1.164 0-.095-.096-.095-.096-.095-.096 0-.096.095-.385.388-.482.679-.963.968-1.349.968-.48 0-.674-.29-.674-1.067 0-.194 0-.483.097-.679 2.022-.195 2.792-.97 2.792-2.037zM101.684 124.545c.29 0 .387.194.387.485 0 .292 0 1.746-2.217 2.134.29-1.746 1.253-2.62 1.83-2.62zm.965.777c0-.485-.193-.97-.964-.97-1.06 0-2.697 1.65-2.697 3.686 0 1.067.386 1.65 1.06 1.65.482 0 1.06-.388 1.349-.68.481-.484.77-1.066.77-1.164 0-.095 0-.095-.095-.095-.097 0 0 .095-.29.388-.481.679-.963.968-1.444.968-.386 0-.578-.29-.578-1.067v-.679c2.118-.195 2.889-.97 2.889-2.037zM103.225 129.494l.675-1.844c.481-1.358.674-2.231.674-2.425 0-.194 0-.291-.095-.291-.194 0-.482.291-.772.777-.385.485-.29.485-.482.485 0-.29.964-1.843 1.638-1.843.288 0 .48.194.48.485 0 .582-.385 1.552-.48 2.038.385-.778 1.542-2.523 2.601-2.523.385 0 .578.194.578.582 0 .485-.095.679-.77 2.33-.482 1.26-.482 1.454-.482 1.552 0 .194 0 .194.095.194.194 0 .386-.098.674-.486.482-.679.482-.873.58-.873l.094.098c0 .29-1.06 1.842-1.734 1.842-.287 0-.385-.194-.385-.486 0-.388.097-.968.385-1.649.675-1.648.867-2.037.867-2.328 0-.29-.095-.39-.287-.39-.482 0-1.349.971-2.216 2.524-.289.485-.772 1.648-.867 2.037-.096.194-.096.194-.192.194h-.579zM113.243 123.576c0-.194.192-.194.964-.583.961-.484.961-.582 1.059-.582.095 0 .095.097.095.097 0 .194-1.926 5.82-1.926 6.402 0 .291.192.291.674.39.192 0 .192.095.192.193 0 0 0 .096-.094.096-.097 0-.193-.096-1.252-.096-.772 0-.867.096-1.062.096-.095 0-.192 0-.192-.194 0 0 .097-.096.192-.096.675-.097.675-.097.772-.39 1.445-4.85 1.637-5.334 1.637-5.528h-.095c-.096 0-.674.29-.866.29-.098 0-.098 0-.098-.095zM117 123.284c-.192 0-.289-.194-.289-.291 0-.194.097-.388.193-.582.097 0 .29.097.482.097h3.372c-1.542 2.62-2.988 5.14-4.142 7.567h-.387c.674-1.358 2.313-4.366 3.757-6.791H117zM123.069 126.875l.674-2.523.193-.096c.29-.097.482-.195.577-.195v.097s-.094.388-.77 2.717h.77l-.095.483h-.772c-.288.97-.48 1.457-.48 1.65 0 .193.192.291.48.291.096 0 .192.096.192.096 0 .097 0 .194-.287.194-.29 0-.58-.096-.867-.096-.675 0-.675.096-.964.096-.095 0-.192 0-.192-.096 0-.097.096-.194.289-.194.578 0 .578-.195.674-.485l.48-1.457h-2.504c0-.29 0-.483.095-.581 1.542-1.65 2.603-2.911 4.142-4.754.097-.097.193-.097.29-.097.289 0 .385 0 .385.097l-.193.194-4.334 4.657h2.217v.002zM127.595 125.516c1.06 0 1.734.776 1.734 1.747 0 1.746-1.83 3.298-3.468 3.298-.77 0-1.156-.388-1.156-.777 0-.29.193-.388.387-.388.287 0 .48.194.48.485s.193.388.482.388c1.156 0 2.408-1.455 2.408-3.105 0-.679-.385-1.356-1.06-1.356-.771 0-.963.483-1.156.483-.095 0-.095-.095-.095-.194 0-.095.578-.388 1.252-.775 1.157-.584 1.637-1.457 1.637-2.038 0-.388-.287-.776-.77-.776-.289 0-.577.194-.772.388-.385.485-.48.776-.672.776-.097 0-.097 0-.097-.096 0-.097.578-1.358 1.83-1.358.675 0 1.253.388 1.253 1.164 0 1.163-1.445 1.747-2.217 2.134z"/></g></svg>
