<svg width="200" height="200" viewBox="0 0 200 200" xmlns="http://www.w3.org/2000/svg" xmlns:xlink="http://www.w3.org/1999/xlink"><title>alfa-bank</title><defs><path id="a" d="M79.941 47.921H0V0h159.881v47.921h-79.94z"/></defs><g transform="translate(20 76)" fill="none" fill-rule="evenodd"><mask id="b" fill="#fff"><use xlink:href="#a"/></mask><path d="M111.988 23.546c-.987 0-1.788.815-1.788 1.811 0 1.007.801 1.814 1.788 1.814.986 0 1.786-.807 1.786-1.814 0-.996-.8-1.811-1.786-1.811zm-61.975 1.722s.893-3.025 1.028-3.499c.36-1.23.9-3.168.9-3.168h.089s.497 2.008.82 3.15c.128.445.98 3.517.98 3.517h-3.817zm5.431 5.493h3.228l-4.875-15.094a5.783 5.783 0 0 0-1.83-.285c-.74 0-1.003.1-1.583.285l-5.17 15.094h3.092s.414-1.322.921-2.964h5.347l.87 2.964zm104.438 0s-1.528-3.305-1.903-4.052c-.422-.848-.81-1.433-1.674-1.64v-.05c.579-.111 1.038-.466 1.535-1.545.48-1.056.621-1.282.9-1.531.277-.253.652-.157.652-.157l.142-1.965a7.038 7.038 0 0 0-1.303-.03c-.758.048-1.153.265-1.524.65-.29.291-.49.727-.737 1.237-.263.546-.47.987-.734 1.543-.27.569-.4.823-1.126.823h-.47v-4.08h-2.815V30.76h2.814v-4.412l.383-.007c.8 0 .937.202 1.361 1.057.5 1.021 1.445 3.362 1.445 3.362h3.054zm-11.5 0V19.963h-2.804v4.083h-3.172v-4.083h-2.798v10.798h2.798v-4.41h3.172v4.41h2.804zM71.375 19.865l-.012 10.328c1.329.568 2.788.824 4.085.824 2.975 0 4.568-1.558 4.568-4.125 0-2.324-1.41-3.76-4.044-3.76-.67 0-1.061.09-1.796.268v-3.535h-2.801zm5.743 7.158c0 1.066-.37 1.795-1.716 1.795-.453 0-.64 0-1.228-.166v-3.114c.73-.144.795-.168 1.228-.168 1.286 0 1.716.633 1.716 1.653zm61.022 2.702c-.742-1.14-.934-1.811-.934-3.244v-2.909c0-1.571-.178-2.147-.588-2.723-.57-.808-1.517-1.158-3.267-1.158a14.42 14.42 0 0 0-3.603.434l.415 2.083c.785-.111 1.61-.207 2.203-.207 1.852 0 2.066.274 2.066 1.681v.528a5.283 5.283 0 0 0-1.415-.193c-2.801 0-4.276 1.383-4.276 3.668 0 2.147 1.576 3.319 3.506 3.319.718 0 1.464-.135 2.056-.377.358-.16.514-.25.975-.559.28.416.84.836 1.068.912l1.794-1.255zm-3.562-1.245c-.615.216-1.02.266-1.509.266-1.003 0-1.568-.401-1.568-1.443 0-1.083.718-1.45 2.107-1.45.337 0 .67.051.824.107v.777c0 .838.044 1.386.146 1.743zm-27.351 1.245c-.74-1.14-.932-1.811-.932-3.244v-2.909c0-1.571-.18-2.147-.59-2.723-.568-.808-1.517-1.158-3.265-1.158-1.233 0-2.446.136-3.605.434l.415 2.083c.789-.111 1.61-.207 2.203-.207 1.856 0 2.07.274 2.07 1.681v.528a5.312 5.312 0 0 0-1.417-.193c-2.804 0-4.278 1.383-4.278 3.668 0 2.147 1.575 3.319 3.507 3.319.717 0 1.466-.135 2.058-.377.356-.16.511-.25.975-.559.28.416.837.836 1.066.912l1.793-1.255zm-3.56-1.245c-.616.216-1.022.266-1.508.266-1.002 0-1.572-.401-1.572-1.443 0-1.083.719-1.45 2.108-1.45.333 0 .67.051.827.107v.777c0 .838.041 1.386.144 1.743zm-34.513 2.28V20.358c-1.539-.464-2.722-.666-4.266-.666-1.542 0-2.696.202-4.235.666v5.327c0 1.448-.025 1.883-.18 2.35-.156.411-.363.904-.928 1.285l.764 1.66c2.25-.643 3.097-1.634 3.097-4.785v-3.92c.743-.11.89-.134 1.482-.134.596 0 .72.025 1.462.135v8.486h2.804zm21.202 3.538v-3.88c.355.213 1.062.527 2.256.527 2.373 0 4.121-1.997 4.121-5.647 0-3.932-1.737-5.614-4.592-5.614-.726 0-1.198.075-1.785.359v-4.635h-2.79v4.635c-.588-.284-1.063-.36-1.787-.36-2.855 0-4.594 1.753-4.594 5.682 0 3.651 1.572 5.58 4.119 5.58 1.198 0 1.906-.314 2.261-.527v3.88h2.79zm-6.293-8.933c0-2.167.645-3.313 1.93-3.313.543 0 .903-.003 1.572.32v5.962c-.607.202-.895.23-1.436.23-1.465 0-2.066-1.211-2.066-3.2zm9.794-.067c0 1.985-.78 3.266-2.066 3.266-.54 0-.826-.028-1.435-.23v-5.961c.669-.324 1.03-.321 1.57-.321 1.287 0 1.931 1.077 1.931 3.246zm33.815.776c0-2.675-1.547-4.518-4.798-4.518-.799 0-1.356.077-2.218.283l-.006-3.85c.535-.078 1.453-.146 2.464-.146.956 0 2.167.053 3.23.185l.074-2.232c-1.208-.274-2.96-.441-4.319-.441-1.34 0-3.422.339-4.414.61l-.001 14.233c1.546.573 3.055.836 4.604.836 3.545 0 5.384-1.903 5.384-4.96zm-2.98.215c0 1.443-.79 2.392-2.241 2.392-.574 0-1.045.002-1.795-.205v-4.367a8.94 8.94 0 0 1 1.795-.134c1.476.056 2.24.755 2.24 2.314zM15.163 7.58L10.97 20.328h8.452l-4.207-12.75h-.052zM.47 41.525c-.26 0-.47.218-.47.488v5.421c0 .27.21.487.47.487h29.438a.476.476 0 0 0 .466-.487v-5.421a.477.477 0 0 0-.466-.488H.47zM15.189 0c3.222 0 4.234 2.337 5.08 4.677.36.989 8.728 24.197 8.978 24.893.07.192.024.513-.271.627-.297.114-4.646 1.827-4.886 1.919a.47.47 0 0 1-.6-.286c-.088-.24-1.89-5.3-2.094-5.866H8.997c-.204.566-2.024 5.634-2.109 5.866-.083.231-.343.388-.598.286-.255-.103-4.623-1.817-4.88-1.919a.493.493 0 0 1-.277-.627c.308-.871 8.548-23.706 8.97-24.893C10.918 2.374 11.968 0 15.19 0z" fill="#EE3523" mask="url(#b)"/></g></svg>
