<svg width="200" height="200" viewBox="0 0 200 200" xmlns="http://www.w3.org/2000/svg"><title>sberbank</title><defs><radialGradient cx="57.703%" cy="87.676%" fx="57.703%" fy="87.676%" r="63.276%" id="a"><stop stop-color="#52A347" offset="0%"/><stop stop-color="#83B03E" offset="50.2%"/><stop stop-color="#2EA64C" offset="70.6%"/><stop stop-color="#264122" offset="92.9%"/><stop stop-color="#264122" offset="93.3%"/></radialGradient><radialGradient cx="53.252%" cy="32.828%" fx="53.252%" fy="32.828%" r="57.455%" id="b"><stop stop-color="#52A347" offset="0%"/><stop stop-color="#83B03E" offset="50.2%"/><stop stop-color="#2B9940" offset="70.6%"/><stop stop-color="#264122" offset="92.9%"/><stop stop-color="#264122" offset="93.3%"/></radialGradient></defs><g fill="none" fill-rule="evenodd"><path d="M173.421 85.935h3.706c-.665.37-1.554 1.074-2.67 2.109l-3.705 3.78 2.032 2.906c2.125 3.024 3.985 5.332 5.578 6.924h-5.3c-.663-1.54-1.527-3.104-2.59-4.696l-2.39-3.581 2.072-2.627c1.86-2.414 2.949-4.02 3.267-4.815zm-5.618 1.75v12.178l.16.916c.105.159.345.292.716.398v.477h-5.14v-.477l.717-.398c.106-.16.16-.464.16-.916V87.686l-.16-.876c-.106-.185-.346-.305-.717-.358v-.517h5.14v.517c-.372.053-.612.173-.717.358l-.16.876zm-7.651 0v12.178l.16.916.717.398v.477h-5.18v-.477c.37-.106.637-.24.796-.398l.12-.916v-6.327h-6.057v6.327l.16.916c.106.159.344.292.715.398v.477h-5.22v-.477c.426-.106.69-.24.797-.398l.16-.916V87.686l-.16-.876c-.107-.185-.371-.305-.797-.358v-.517h5.22v.517c-.372.053-.61.173-.717.358l-.16.876V92.5h6.057v-4.815l-.118-.876c-.159-.185-.425-.305-.797-.358v-.517h5.18v.517c-.371.053-.61.173-.717.358l-.159.876zm-1.873 24.435h2.51l-1.035 5.253h-.718l.478-2.427h-1.235l-1.713 2.427h-.797l1.753-2.467c-.717-.212-1.076-.664-1.076-1.353 0-.372.16-.69.478-.955.32-.318.771-.478 1.355-.478zm-.16 2.229h1.515l.319-1.632h-1.674c-.372 0-.664.093-.876.279a.81.81 0 0 0-.24.597c0 .504.32.756.957.756zm-6.136-.876l-.518 2.627c.399.505.85.756 1.355.756s.944-.251 1.315-.756c.372-.53.558-1.18.558-1.95 0-.504-.106-.888-.319-1.154-.212-.264-.518-.398-.916-.398-.585 0-1.076.291-1.475.875zm.2-1.353l-.12.637.677-.557.877-.199c.558 0 .996.185 1.315.557.319.372.478.915.478 1.632 0 .955-.25 1.737-.757 2.348-.478.61-1.076.915-1.793.915l-.877-.16-.637-.477-.518 2.667h-.718l1.435-7.363h.637zm12.591 0l.598 4.617h.518l-.319 1.631h-.558l.12-.995h-3.546l-.28.995h-.517l.279-1.631h.478l2.191-4.617h1.036zm-.677.677l-1.833 3.94h2.351l-.359-3.94h-.159zm2.47 2.388c0-.903.266-1.658.797-2.269.479-.61 1.063-.915 1.754-.915.584 0 1.036.213 1.355.637.345.398.518.955.518 1.671 0 .849-.254 1.592-.757 2.229-.506.61-1.09.915-1.754.915-.585 0-1.05-.199-1.394-.597-.346-.398-.518-.955-.518-1.671zm11.795-8.04H63.043v-1.551h115.32v1.552zm-4.463 4.975l.598 4.537 2.192-4.537h1.155l-1.036 5.253h-.677l.877-4.616-2.312 4.616h-.677l-.677-4.616-.917 4.616h-.677l1.036-5.253h1.115zm-3.944.916a1.133 1.133 0 0 0-.917-.438c-.451 0-.85.251-1.195.756-.373.53-.558 1.18-.558 1.95 0 .478.12.862.358 1.154.213.264.492.398.837.398.478 0 .904-.252 1.275-.756.347-.53.518-1.168.518-1.91 0-.478-.106-.862-.318-1.154zm-34.867-26.584v-.517h4.542c.052.716.24 1.486.558 2.308l3.348 9.392c.557 1.645 1.1 2.984 1.633 4.02h-3.984l-1.714-5.652h-5.06l-1.076 3.74-.32 1.911h-2.868l5.099-11.78c.505-1.246.757-2.095.757-2.546.001-.504-.305-.796-.915-.876zm1.873 2.11l-2.152 6.327h4.303l-2.151-6.328zm-8.05.795h-.876l-.2-.676c-.213-.77-.532-1.274-.956-1.513l-2.191-.278h-2.112c-.479 0-.797.08-.957.239-.132.132-.199.37-.199.716v3.74h.877c2.55 0 4.317.253 5.3.757 1.408.69 2.111 2.043 2.111 4.059 0 1.964-.557 3.37-1.673 4.218-.984.69-2.51 1.035-4.583 1.035h-6.296v-.477l.757-.398.12-.916V87.686l-.12-.876c-.106-.185-.358-.305-.757-.358v-.517h11.755v3.422zm-7.49 3.224v6.725c0 .531.092.876.278 1.035.214.212.585.318 1.116.318h.478c1.01 0 1.753-.345 2.231-1.035.426-.636.638-1.657.638-3.064 0-1.38-.226-2.36-.677-2.945-.479-.69-1.369-1.034-2.67-1.034h-1.395zm.995 17.828c.319.319.478.756.478 1.313 0 .478-.146.876-.438 1.194-.265.292-.69.518-1.275.677.823.344 1.235.888 1.235 1.631 0 .69-.239 1.22-.717 1.592-.451.372-1.129.557-2.032.557h-2.51l1.394-7.441h2.351c.665 0 1.168.159 1.514.477zm-3.227.2l-.518 2.586h1.474c.637 0 1.13-.133 1.474-.398.347-.291.518-.65.518-1.075 0-.398-.106-.676-.318-.835-.24-.187-.598-.279-1.076-.279h-1.554zm4.9 4.576c0 .53.134.929.4 1.194.238.29.584.437 1.035.437l.917-.278.518-.717.558.24-.797.994c-.347.265-.772.398-1.277.398-.611 0-1.103-.212-1.474-.637-.372-.424-.558-.995-.558-1.71 0-.85.239-1.578.717-2.19.478-.61 1.076-.915 1.793-.915.505 0 .903.134 1.196.398.291.239.53.611.717 1.114l-.676.12c-.186-.69-.598-1.035-1.235-1.035-.478 0-.904.239-1.275.716-.372.504-.558 1.128-.558 1.87zm-4.183-1.353h-1.355l-.518 2.865h1.753c.585 0 1.036-.132 1.355-.398.319-.265.478-.623.478-1.075 0-.345-.146-.663-.438-.955-.345-.29-.77-.437-1.275-.437zm12.95.915h-3.705l-.04.438c0 .53.133.941.398 1.233.24.292.572.438.996.438.373 0 .691-.12.957-.358l.677-.876.598.319-.996 1.074c-.372.292-.824.438-1.355.438-.61 0-1.089-.199-1.435-.597-.345-.424-.518-.981-.518-1.671 0-.93.24-1.684.718-2.269.506-.61 1.13-.915 1.872-.915.612 0 1.078.185 1.395.557.347.346.518.849.518 1.512l-.08.677zm-.916-1.751a1.18 1.18 0 0 0-.917-.398c-.478 0-.85.146-1.115.438-.266.238-.479.61-.638 1.114h2.909l.04-.318c0-.319-.093-.597-.28-.836zm1.713 4.377l1.036-5.253h2.95l-.12.597h-2.272l-.916 4.656h-.678zm5.938-4.576l-1.833 3.94h2.35l-.358-3.94h-.16zm.677-.677l.598 4.617h.518l-.319 1.631h-.518l.08-.995h-3.547l-.279.995h-.518l.28-1.631h.477l2.192-4.617h1.036zm1.913 3.86c0-.557.239-.98.717-1.273.505-.318 1.209-.477 2.112-.477h.717l.04-.597c0-.346-.092-.597-.279-.756-.213-.186-.505-.279-.877-.279-.346 0-.73.199-1.155.597l-.438-.438c.584-.504 1.155-.756 1.713-.756.53 0 .956.146 1.275.438.319.292.478.664.478 1.114l-.08.796-.358 1.751c-.08.372-.12.796-.12 1.273h-.677l-.04-.596-.717.477-.837.2c-.425 0-.77-.146-1.036-.439a1.413 1.413 0 0 1-.438-1.034zm2.909-1.193c-1.461 0-2.192.37-2.192 1.114 0 .265.08.49.24.677a.924.924 0 0 0 .676.278c.399 0 .904-.225 1.515-.676l.279-1.393h-.518zm-29.328-24.355c0 1.83-.558 3.144-1.674 3.94-.956.69-2.444 1.034-4.463 1.034h-1.594v4.457l.16.916c.08.159.33.292.755.398v.477h-5.18v-.477l.717-.398.16-.916V87.686l-.16-.876c-.106-.185-.346-.305-.717-.358v-.517h6.535c1.78 0 3.081.265 3.905.796 1.038.69 1.556 1.923 1.556 3.7zm-7.492-3.383c-.16.106-.239.345-.239.716v6.646h1.594c.983 0 1.674-.371 2.072-1.114.346-.663.518-1.671.518-3.025 0-2.254-.943-3.382-2.829-3.382h-.398l-.718.159zm-6.893 2.308h-.837l-.2-.676c-.265-.77-.597-1.274-.996-1.513l-2.151-.278h-1.754l-.637.159-.16.597V92.5h2.072c1.435 0 2.378-.16 2.83-.478v1.99c-.451-.318-1.395-.477-2.83-.477h-2.072v5.89c0 .477.16.809.479.994l1.992.24h.438l2.152-.32c.372-.238.665-.821.877-1.75l.16-.597h.995v3.661H90.38v-.477c.398-.106.65-.24.757-.398l.16-.916V87.686l-.16-.876c-.106-.185-.359-.305-.757-.358v-.517h10.998v3.422zm-13.588 0h-.837l-.2-.676c-.239-.77-.57-1.274-.996-1.513l-2.112-.278h-2.191c-.452 0-.77.08-.957.239-.08.132-.12.37-.12.716v3.74h.878c2.524 0 4.29.253 5.3.757 1.38.69 2.071 2.043 2.071 4.059 0 1.964-.557 3.37-1.673 4.218-.957.69-2.484 1.035-4.583 1.035h-6.335v-.477c.425-.106.69-.24.796-.398l.16-.916V87.686l-.16-.876c-.106-.185-.37-.305-.796-.358v-.517h11.755v3.422zm-15.86-2.149c-.478-.344-1.222-.517-2.231-.517-1.594 0-2.723.583-3.387 1.75-.558 1.01-.837 2.654-.837 4.936 0 2.281.305 3.966.916 5.054.744 1.353 2.019 2.03 3.826 2.03 1.328 0 2.643-.32 3.945-.956l.478.995c-1.514.928-3.294 1.393-5.34 1.393-4.994 0-7.491-2.64-7.491-7.92 0-5.544 2.59-8.317 7.77-8.317 1.993 0 3.52.239 4.583.716v3.264h-.997l-.278-.955c-.213-.663-.532-1.154-.957-1.473zm8.448 5.373v6.725c0 .531.08.876.239 1.035.213.212.598.318 1.156.318h.438c1.913 0 2.869-1.366 2.869-4.099 0-1.38-.226-2.36-.677-2.945-.505-.69-1.409-1.034-2.71-1.034h-1.315z" fill="#006236"/><path d="M26.1 2.428L27.495 3.7 9.882 13.809 1.355 8.874l.797-1.591 7.73 4.417L26.1 2.428zM22.554.398l1.873.955L9.882 9.71 3.108 5.85l1.156-1.393 5.618 3.224L22.554.398zm6.176 4.616l1.036 1.393L9.882 17.83.28 12.337l.438-1.751 9.165 5.253L28.73 5.014z" fill="url(#a)" transform="translate(22 81)"/><path d="M31.6 10.148c.583 1.645.876 3.37.876 5.173 0 1.805-.293 3.556-.877 5.253l-.398 1.075a16.538 16.538 0 0 1-3.467 5.173 16.008 16.008 0 0 1-5.18 3.423 15.944 15.944 0 0 1-6.336 1.313c-2.205 0-4.317-.438-6.336-1.313-1.886-.796-3.6-1.937-5.14-3.423a15.685 15.685 0 0 1-3.467-5.173A16.31 16.31 0 0 1 0 15.321v-1.074l9.882 5.611L30.722 7.92l.877 2.229z" fill="url(#b)" transform="translate(22 81)"/></g></svg>
