<svg width="200" height="200" viewBox="0 0 200 200" xmlns="http://www.w3.org/2000/svg"><title>bank-moscow-2</title><g fill="none" fill-rule="evenodd"><path d="M80.016 116.87l.018-17.883h-2.233v6.938h-3.464v-6.938l-2.726-.018c.52.633.52 1.92.52 2.656v17.884h2.186l.02-12.666H77.8v12.666h2.735c-.558-.67-.558-1.92-.519-2.638zM90.558 116.87v-3.703c0-1.673-.313-3.13-.72-4.131-.34-.86-1.05-1.731-1.703-2.175-.313-.265-.663-.417-1.06-.549l3.463-7.307h-2.564l-3.001 6.863v-6.9h-2.725c.473.633.473 1.919.473 2.655v17.885h2.252V106.86c2.12 0 3.313 1.711 3.256 3.884l-.02 8.764h2.727c-.397-.634-.397-1.9-.378-2.638zM54.378 102.37c-.851-.462-1.968-.963-2.904-.963v-8.394l3.955-.019c1.523.208 1.93 1.362 1.93 3.29h.398v-4.206l-9.283-.03c.482.625.5 2.061.5 2.658v24.803h2.5l1.343-.037c1.997 0 3.52-.756 4.58-2.004 1.23-1.42 1.534-3.48 1.534-5.757 0-2.674-.397-4.82-1.571-6.436-.833-1.098-1.714-2.232-2.982-2.904zm1.921 11.562c-.094 3.082-.615 4.518-3.596 4.518h-1.23v-16.08c.88 0 1.656.484 2.29 1.06 1.513 1.381 2.422 3.724 2.536 5.607.114 1.577.057 3.269 0 4.895zM69.265 116.87v-12.637c0-1.078-.463-2.533-1.373-3.743-.804-1.115-2.016-1.967-3.634-1.967-1.173 0-2.035.445-2.574 1.211v3.94h.407c0-1.417 0-2.626.54-3.279.303-.463.823-.661 1.627-.661.653 0 1.25.405 1.713 1.058.653.908 1.042 2.268 1.042 3.687v1.446c-.985 0-2.499.502-3.502 1.134-.767.483-1.561 1.324-1.883 1.995-.483.965-.767 2.457-.767 4.132 0 1.171.152 2.324.436 3.27.236.841.634 1.646 1.04 2.185.56.717 1.326 1.15 2.253 1.15.824 0 1.619-.263 2.423-1.209v.927h2.734c-.52-.652-.482-1.92-.482-2.638zm-2.252-.707c0 1.266-.464 2.212-1.174 2.212-1.58 0-2.327-1.767-2.327-3.091v-4.538c0-.709.189-1.522.54-2.173.283-.597.766-1.116 1.286-1.4.426-.189 1.022-.367 1.675-.33v9.32zM150.624 116.87v-3.703c0-1.673-.313-3.13-.71-4.131-.35-.86-1.06-1.731-1.714-2.175-.312-.265-.652-.417-1.059-.549l3.464-7.307h-2.556l-3.01 6.863v-6.863l-2.763-.038c.522.671.522 1.92.539 2.695l-.017 17.846h2.204V106.86c2.139 0 3.351 1.711 3.293 3.884v8.764h2.736c-.407-.652-.427-1.938-.407-2.638zM118.116 92.03l-2.499.019-4.523 20.966-5.962-20.985h-3.17c.804 1.04 1.08 2.344 1.08 3.44l.037 24.039h.899v-21.92l6.597 22.895 5.043-23.397v22.422h2.98c-.5-.652-.48-1.92-.48-2.656V92.03h-.002zM125.46 98.524c-1.704 0-3.635 1.616-3.88 3.29-.312 1.843-.312 4.896-.312 7.335 0 2.457 0 5.52.312 7.383.245 1.655 2.176 3.279 3.88 3.279 1.732 0 3.643-1.625 3.907-3.28.293-1.862.293-4.924.293-7.382 0-2.439 0-5.492-.293-7.335-.264-1.674-2.175-3.29-3.908-3.29zm1.732 17.752c0 .756-.361 2.118-1.476 2.118-1.118 0-1.921-1.787-1.921-3.744v-12.684c0-.86.283-2.231 1.343-2.231 1.117 0 2.054 2.173 2.054 4.328v12.213zM132.577 101.832c-.512 1.617-.71 4.094-.71 7.317 0 6.533 1.789 10.644 5.138 10.644 1.135 0 3.132-.954 3.056-1.644V114.3h-.405c0 1.617-.058 3.924-2.226 4.055-1.674.115-3-1.955-3-5v-11.447c0-.859.918-2.173 2.055-2.173 1.731 0 3.17 1.834 3.17 3.94h.406v-3.94c-1.116-.634-2.053-1.23-3.246-1.23-1.873 0-3.462.945-4.238 3.326zM159.68 106.843c-.19-.189-.501-.34-.804-.434 1.513-.52 3.132-1.58 3.132-3.753 0-2.07-1.458-3.65-3.691-3.65l-4.922-.037c.474.633.474 1.9.493 2.656v17.903h4.675c.313 0 .71-.151 1.116-.406.654-.406 1.43-1.21 1.922-2.42.407-.965.653-2.136.653-3.535 0-1.673-.246-3.072-.748-4.15-.396-.965-1.06-1.654-1.827-2.174zm-3.559-7.108c1.098 0 1.979 0 2.604.775.36.395.936 1.266.936 2.475l-.018 1.136c.018.878-1.213 1.804-2.365 1.804h-1.156v-6.19zm3.54 16.334c0 .746-.321 1.419-.88 1.843a2.467 2.467 0 0 1-1.447.463h-1.213v-11.533c.654-.037 1.23.086 1.713.33.389.227.767.52 1.004.842.52.719.823 1.692.823 2.73v5.325zM177.3 116.87V98.97h-2.733c.52.633.52 1.956.52 2.656v17.884h2.715c-.52-.634-.501-1.92-.501-2.638zM170.374 106.843c-.899-.596-2.195-.88-3.559-.917v-6.92l-2.725-.037c.474.633.474 1.956.474 2.656v17.903h4.409c.502 0 .993-.151 1.4-.406.654-.406 1.43-1.266 1.922-2.42.35-.965.407-2.11.407-3.535 0-1.673 0-3.072-.502-4.15a5.206 5.206 0 0 0-1.826-2.174zm-.056 9.206c0 .748-.284 1.456-.842 1.863a2.483 2.483 0 0 1-1.467.463h-1.211v-11.533c.652-.037 1.287.066 1.712.312.407.226.748.502 1.003.86.522.72.805 1.673.805 2.731v5.304zM177.245 83.882l-.56-.86c.077-.095.171-.188.247-.274.076-.094.198-.189.313-.302.113-.114.227-.227.322-.35.093-.094.198-.189.293-.303v-.037h-.095c-.019 0-.037.018-.056.018h-.294c-.038 0-.057-.018-.075-.018h-.076c-.2.207-.37.396-.522.576-.132.17-.274.322-.426.483-.131.151-.265.283-.397.434-.029 0-.047-.02-.066-.02v-1.474c-.17.019-.341.038-.473.038-.16 0-.313-.02-.483-.038v3.337c.057 0 .133 0 .226-.02h.484c.114.02.19.02.246.02v-1.589a.602.602 0 0 1 .198.208c.227.35.502.803.805 1.38.057 0 .152 0 .274-.02h.529c.124.02.22.02.276.02v-.038c-.227-.396-.463-.783-.69-1.171zM172.57 81.755v1.38h-1.174v-1.38c-.21.019-.369.019-.483.019-.113 0-.266 0-.483-.02v3.338c.217-.02.37-.02.483-.02h.227c.123.02.2.02.256.02V83.54h1.174v1.55c.208-.018.36-.018.482-.018h.226c.115.019.19.019.247.019v-3.337c-.208.019-.36.019-.473.019-.122 0-.293 0-.482-.02zM166.607 85.055c.152.075.323.112.52.112.171 0 .342-.056.523-.132a.981.981 0 0 0 .36-.378.853.853 0 0 0 .273.378.837.837 0 0 0 .417.132c.16 0 .369-.075.635-.188v-.152a.518.518 0 0 1-.285-.075c-.056-.038-.076-.133-.076-.256v-1.88c0-.227-.056-.398-.198-.54a1.024 1.024 0 0 0-.493-.302 2.24 2.24 0 0 0-.615-.095c-.255 0-.482.038-.718.133a1.536 1.536 0 0 0-.578.34l.085.406h.057c0-.037.056-.113.133-.17.093-.076.189-.133.32-.198.124-.038.257-.076.39-.076.17 0 .33.076.462.198.134.114.19.265.19.416 0 .142-.019.218-.095.292-.095.057-.264.114-.5.17-.323.077-.578.152-.749.237a.96.96 0 0 0-.405.303 1.032 1.032 0 0 0 0 1.02.694.694 0 0 0 .347.305zm.73-1.475a.356.356 0 0 1 .188-.095c.076-.038.18-.076.293-.123a1.2 1.2 0 0 1 .19-.056v.652c-.02.501-.19.756-.52.756a.304.304 0 0 1-.286-.16.66.66 0 0 1-.093-.378c0-.294.076-.483.227-.596zM164.413 84.922a1.57 1.57 0 0 0 .633-.652c.152-.265.22-.577.22-.927 0-.322-.068-.634-.22-.88a1.502 1.502 0 0 0-.633-.576 2.05 2.05 0 0 0-.918-.208c-.236 0-.463.038-.664.114-.207.075-.378.17-.53.302 0-.227.056-.435.171-.633.113-.17.303-.322.576-.445.247-.114.598-.17 1.023-.17.397 0 .73.037 1.013.094 0-.038-.02-.076-.02-.133-.018-.075-.018-.132-.018-.17 0-.057 0-.114.019-.17 0-.066.019-.104.019-.123-.73 0-1.306.038-1.733.141-.416.075-.767.227-.994.454-.236.218-.405.539-.5.946a8.905 8.905 0 0 0-.132 1.615c0 .322.076.616.227.861.151.274.35.463.615.595.264.133.576.208.927.208.34.002.652-.073.919-.243zm-1.365-.303a1.422 1.422 0 0 1-.236-.558 3.445 3.445 0 0 1-.056-.576c0-.445.056-.813.2-1.078.112-.292.302-.425.575-.425.227 0 .398.113.512.368.142.227.198.539.198.879 0 .426-.056.813-.198 1.135-.133.33-.304.481-.549.481-.2.001-.35-.075-.446-.226zM154.031 81.424c.245 0 .51-.037.747-.151a1.95 1.95 0 0 0 .671-.445l-.208-.283c-.407.34-.795.52-1.21.52-.408 0-.796-.18-1.155-.52l-.237.303c.198.198.406.35.653.444.236.095.483.132.74.132zM153.045 85.074c.095.018.134.018.152.018.446-.765.91-1.474 1.43-2.127v2.127c.207-.018.378-.018.473-.018h.254c.115.018.19.018.227.018v-3.336c-.152.018-.264.018-.34.018-.038 0-.123 0-.2-.018h-.168c-.522.878-1.004 1.588-1.42 2.089v-2.09c-.199.02-.37.02-.484.02-.093 0-.255 0-.481-.02v3.337c.188-.018.33-.018.368-.018h.189zM149.1 84.94c.179-.076.33-.188.444-.321.113-.16.171-.33.171-.5 0-.332-.095-.56-.322-.71-.218-.16-.484-.236-.833-.236h-.598v-1.418c-.076 0-.152 0-.245.019H147.254c-.115-.02-.19-.02-.266-.02v3.319h1.514c.22 0 .408-.038.598-.133zm-1.137-.17v-1.323h.124c.188 0 .34.057.454.152.122.094.18.264.18.52 0 .208-.057.36-.199.482a.676.676 0 0 1-.454.17h-.105zM150.87 81.774h-.454c-.049 0-.086-.02-.124-.02h-.132v3.338c.056 0 .132 0 .257-.02h.471c.095.02.18.02.237.02v-3.337h-.142c-.02 0-.057.019-.113.019zM143.252 85.074c.103.018.198.018.237.018v-1.55h1.172v1.55c.21-.018.378-.018.483-.018h.247c.114.018.188.018.226.018v-3.336c-.19.018-.36.018-.473.018-.122 0-.274 0-.483-.018v1.38h-1.172v-1.38c-.19.018-.369.018-.484.018-.094 0-.246 0-.483-.018v3.336c.237-.018.389-.018.483-.018h.247zM141.122 83.41c-.218-.161-.5-.237-.833-.237h-.615v-1.418c-.056 0-.152 0-.247.019H138.966c-.095-.02-.19-.02-.247-.02v3.319h1.494c.218 0 .407-.038.598-.133.198-.076.35-.188.462-.321.115-.16.17-.33.17-.5 0-.332-.113-.558-.321-.71zm-.89 1.19a.601.601 0 0 1-.435.17h-.123v-1.323h.142c.19 0 .34.057.456.152.122.094.178.264.178.52a.6.6 0 0 1-.218.481zM134.99 85.092c.055-.17.133-.36.189-.578a8.85 8.85 0 0 0 .208-.614c.075-.17.131-.378.236-.576a8.85 8.85 0 0 0 .208-.615l.786 2.383c.056 0 .16 0 .273-.02h.54c.114.02.209.02.265.02-.208-.52-.407-1.012-.578-1.494-.169-.463-.387-1.078-.652-1.843h-.095c-.019 0-.056.019-.093.019h-.275c-.02 0-.076 0-.132-.02h-.115c-.056.208-.132.398-.198.596-.076.17-.151.36-.21.539-.075.188-.15.378-.224.576-.078.17-.18.397-.276.652-.132.303-.246.577-.36.822-.038.076-.038.133-.038.152.115 0 .208-.02.266-.02.056.003.152.02.274.02zM131.98 85.035a.997.997 0 0 0 .388-.378.729.729 0 0 0 .673.51c.15 0 .368-.075.633-.188v-.152a.511.511 0 0 1-.283-.075c-.038-.038-.076-.133-.076-.256v-1.88c0-.227-.056-.398-.198-.54a.956.956 0 0 0-.493-.302 2.272 2.272 0 0 0-.625-.095 1.92 1.92 0 0 0-.71.133 1.53 1.53 0 0 0-.576.34l.075.406h.066c.02-.037.057-.113.152-.17.076-.076.17-.133.303-.198.122-.038.256-.076.388-.076.17 0 .331.076.463.198a.558.558 0 0 1 .208.416c0 .142-.037.218-.113.292-.095.057-.275.114-.502.17a4.694 4.694 0 0 0-.747.237c-.17.076-.312.17-.388.303-.095.132-.132.312-.132.52 0 .188.037.368.113.5.095.132.21.245.37.303.132.076.303.113.5.113.19.001.36-.055.51-.131zm-.304-1.455a.427.427 0 0 1 .21-.095c.076-.038.159-.076.274-.123a.844.844 0 0 1 .207-.056v.652c-.017.501-.207.756-.539.756a.302.302 0 0 1-.283-.16.87.87 0 0 1-.095-.378c0-.294.076-.483.226-.596zM126.236 81.755v3.337c.208-.02.36-.02.483-.02h.227c.113.02.188.02.246.02v-2.94h1.173v2.94c.217-.02.37-.02.483-.02h.256c.095.02.17.02.227.02v-3.337H126.236zM122.328 85.074a.607.607 0 0 0 .151.018 15.5 15.5 0 0 1 1.428-2.127v2.127c.21-.018.362-.018.484-.018h.246c.093.018.17.018.227.018v-3.336c-.152.018-.266.018-.341.018-.057 0-.132 0-.208-.018h-.161c-.54.878-.993 1.588-1.419 2.089v-2.09c-.22.02-.37.02-.483.02-.115 0-.266 0-.483-.02v3.337c.2-.018.312-.018.368-.018h.19zM120.756 85.271a.923.923 0 0 1-.047-.311c0-.114.019-.208.047-.283h-.35v-2.921c-.134.018-.313.018-.483.018-.208 0-.36 0-.483-.018v2.92h-1.174v-2.92c-.094.018-.245.018-.472.018-.218 0-.388 0-.483-.018v3.336c.132-.018.341-.018.615-.018h1.496c.405 0 .69 0 .87.018.17.02.302.075.397.18h.067zM113.384 85.074c.095.018.132.018.152.018.444-.765.908-1.474 1.447-2.127v2.127c.21-.018.362-.018.464-.018h.246c.115.018.19.018.247.018v-3.336c-.152.018-.285.018-.36.018-.038 0-.114 0-.19-.018h-.16c-.54.878-1.022 1.588-1.42 2.089v-2.09c-.218.02-.37.02-.482.02-.115 0-.266 0-.502-.02v3.337c.22-.018.331-.018.37-.018h.188zM109.117 85.074c.093.018.188.018.226.018v-1.55h1.154v1.55c.218-.018.389-.018.482-.018h.247c.123.018.199.018.236.018v-3.336c-.189.018-.368.018-.483.018-.113 0-.264 0-.481-.018v1.38h-1.155v-1.38c-.19.018-.36.018-.483.018-.095 0-.246 0-.473-.018v3.336c.227-.018.378-.018.473-.018h.257zM104.574 86.879c.076-.02.179-.02.292-.02.132 0 .227 0 .303.02a54.262 54.262 0 0 1 1.448-3.536l.71-1.588c-.134 0-.227.019-.293.019-.058 0-.152-.02-.285-.02-.076.208-.17.482-.293.804-.132.33-.208.558-.247.634l-.244.69c-.352-.785-.615-1.493-.852-2.127h-.134c-.037 0-.093.019-.132.019H104.252c-.056-.02-.114-.02-.2-.02l1.411 3.319-.89 1.806zM101.753 82.729l.398 2.363c.056 0 .151 0 .275-.018h.52c.095.018.189.018.247.018-.095-.265-.171-.539-.247-.822-.086-.312-.16-.596-.217-.823a9.635 9.635 0 0 1-.19-.87c-.056-.302-.113-.576-.152-.822h-.122c-.019 0-.058.019-.076.019h-.379c-.039 0-.058-.02-.105-.02h-.094c-.057.171-.113.36-.19.54-.057.17-.15.396-.274.69-.095.264-.17.481-.227.576a5.223 5.223 0 0 0-.171.463l-.833-2.27h-.114c-.018 0-.056.02-.093.02h-.352c-.037 0-.075-.02-.094-.02h-.095c-.113.436-.207.824-.283 1.154-.104.34-.18.652-.275.973l-.34 1.21c.133 0 .208-.018.264-.018.076 0 .171.019.294.019.095-.71.246-1.494.416-2.364l.871 2.364c.038 0 .094 0 .189-.02h.387a.865.865 0 0 0 .19.02c.075-.246.15-.52.245-.785.086-.245.18-.5.255-.71.098-.187.21-.48.372-.867zM90.69 81.424c.265 0 .52-.037.767-.151.256-.094.464-.255.672-.445l-.227-.283c-.388.34-.785.52-1.192.52-.426 0-.804-.18-1.173-.52l-.227.303c.19.198.417.35.653.444.245.095.472.132.727.132zM91.712 81.755h-.16c-.521.878-.994 1.588-1.42 2.089v-2.09c-.208.02-.369.02-.483.02-.095 0-.265 0-.482-.02v3.338c.199-.02.312-.02.37-.02h.188c.076.02.133.02.152.02.426-.766.908-1.475 1.429-2.128v2.128c.207-.02.368-.02.482-.02h.246c.094.02.17.02.236.02v-3.337c-.16.019-.274.019-.35.019-.056 0-.112 0-.208-.02zM85.268 85.074c.076.018.133.018.152.018.426-.765.898-1.474 1.42-2.127v2.127c.217-.018.369-.018.482-.018h.255c.095.018.17.018.227.018v-3.336c-.152.018-.265.018-.35.018-.057 0-.133 0-.208-.018h-.152c-.54.878-1.002 1.588-1.429 2.089v-2.09c-.207.02-.36.02-.473.02-.123 0-.274 0-.482-.02v3.337c.189-.018.302-.018.36-.018h.198zM81.596 83.504a.516.516 0 0 1 .19.207c.226.35.5.804.823 1.38.038 0 .133 0 .256-.018h.54c.113.019.208.019.265.019v-.038c-.227-.397-.445-.785-.69-1.173l-.559-.86c.076-.094.17-.188.247-.274.094-.094.197-.189.311-.302a2.18 2.18 0 0 0 .322-.35c.123-.094.198-.189.293-.302v-.038h-.076c-.037 0-.056.019-.075.019h-.294c-.038 0-.057-.02-.076-.02h-.076c-.188.208-.368.398-.5.577-.153.17-.285.322-.427.483-.133.151-.284.283-.417.434-.018 0-.037-.02-.056-.02v-1.474c-.18.019-.35.038-.483.038-.142 0-.312-.02-.482-.038v3.337c.057 0 .133 0 .227-.02h.482c.114.02.189.02.256.02v-1.587h-.001zM77.394 84.96c.275.132.596.207.946.207.152 0 .331-.037.52-.075.189-.057.322-.114.426-.19l.171-.426-.114-.094c-.094.094-.198.17-.331.236a.78.78 0 0 1-.407.095 1.17 1.17 0 0 1-.615-.16.988.988 0 0 1-.341-.473 2.643 2.643 0 0 1-.019-1.334c.056-.207.151-.397.284-.53a.587.587 0 0 1 .482-.236c.19 0 .37.075.501.208.114.142.19.311.227.52h.16l.265-.728a2.147 2.147 0 0 0-.558-.227 3.62 3.62 0 0 0-.634-.076c-.283 0-.539.038-.766.133a1.736 1.736 0 0 0-.578.359 1.59 1.59 0 0 0-.369.576 2.339 2.339 0 0 0-.133.756c0 .322.076.634.227.898.164.258.372.447.656.56zM74.801 84.96c.19-.058.369-.171.483-.303a.704.704 0 0 0 .188-.5c0-.294-.075-.502-.245-.616-.152-.114-.389-.199-.672-.255a.82.82 0 0 0 .539-.247.664.664 0 0 0 .208-.481.65.65 0 0 0-.17-.464.918.918 0 0 0-.446-.264 2.029 2.029 0 0 0-.615-.076h-1.467v3.318h1.525c.246.002.464-.037.672-.113zm-1.23-2.865h.207c.37 0 .558.18.558.5 0 .37-.188.54-.596.54h-.17v-1.04zm0 2.6v-1.191h.207c.482 0 .72.19.72.615a.487.487 0 0 1-.218.416c-.114.123-.283.16-.501.16h-.209zM71.186 84.27c.133-.265.209-.577.209-.927a1.88 1.88 0 0 0-.209-.88 1.559 1.559 0 0 0-.634-.576 2.112 2.112 0 0 0-1.656-.075 1.575 1.575 0 0 0-.558.359c-.152.18-.265.369-.36.596a1.996 1.996 0 0 0-.123.737c0 .322.076.615.237.86.133.275.34.463.615.596.265.132.577.207.899.207.369 0 .671-.075.946-.245.265-.152.482-.369.634-.652zm-1.003.094c-.133.312-.322.482-.577.482a.53.53 0 0 1-.436-.226c-.104-.16-.18-.35-.217-.558a3.36 3.36 0 0 1-.057-.576c0-.445.057-.813.171-1.078.142-.293.332-.425.596-.425.237 0 .407.113.52.368.114.226.2.539.2.879-.002.425-.087.812-.2 1.134zM64.439 85.074h.226c.095.018.19.018.246.018v-1.588c.067.038.123.114.199.207.226.35.501.804.804 1.38.057 0 .152 0 .275-.018h.51c.142.019.218.019.275.019v-.038c-.208-.397-.445-.785-.672-1.173l-.577-.86c.095-.094.17-.188.264-.274.076-.094.2-.189.313-.302a3.65 3.65 0 0 0 .321-.35c.095-.094.2-.189.275-.302v-.038h-.076c-.019 0-.038.019-.085.019H66.454c-.02 0-.038-.02-.057-.02h-.095c-.18.208-.35.398-.501.577-.133.17-.293.322-.427.483-.132.151-.264.283-.396.434-.048 0-.067-.02-.067-.02v-1.474c-.189.019-.34.038-.473.038-.161 0-.312-.02-.502-.038v3.337c.057 0 .133 0 .246-.02.114.003.19.003.257.003zM60.7 84.96c.294.132.597.207.966.207.15 0 .321-.037.52-.075.189-.057.323-.114.398-.19l.18-.426-.115-.094c-.084.094-.198.17-.33.236a.78.78 0 0 1-.408.095c-.227 0-.436-.057-.596-.16a.993.993 0 0 1-.34-.473 2.062 2.062 0 0 1-.115-.72c0-.188.038-.396.095-.614.057-.207.133-.397.265-.53a.61.61 0 0 1 .501-.236c.189 0 .37.075.483.208a.847.847 0 0 1 .227.52h.15l.275-.728a1.91 1.91 0 0 0-.559-.227 3.62 3.62 0 0 0-.634-.076 1.91 1.91 0 0 0-.747.133 1.424 1.424 0 0 0-.577.359c-.18.16-.294.35-.37.576a1.922 1.922 0 0 0-.133.756c0 .322.076.634.227.898.154.258.372.447.637.56zM57.937 81.887a2.088 2.088 0 0 0-.928-.208c-.264 0-.501.057-.729.133-.217.075-.388.207-.559.359a1.78 1.78 0 0 0-.35.596 2.219 2.219 0 0 0-.132.737c0 .322.076.615.227.86.16.275.35.463.624.596.266.132.568.207.918.207.35 0 .672-.075.946-.245.265-.152.454-.369.615-.652a1.84 1.84 0 0 0 .227-.927c0-.322-.075-.634-.227-.88a1.609 1.609 0 0 0-.632-.576zm-.37 2.477c-.113.312-.302.482-.558.482-.19 0-.322-.075-.445-.226a1.384 1.384 0 0 1-.227-.558 3.36 3.36 0 0 1-.056-.576c0-.445.056-.813.19-1.078.113-.293.312-.425.576-.425.237 0 .408.113.52.368.133.226.19.539.19.879 0 .425-.057.812-.19 1.134zM48.795 85.074h.16c.077.018.134.018.172.018.018-.728.113-1.768.283-3.148.094.189.218.463.407.823.171.35.303.642.407.794.076.17.209.416.36.766.18.33.293.576.369.747h.246c.095-.19.218-.435.369-.766.15-.331.284-.615.407-.823.114-.255.246-.52.416-.85.161-.322.275-.577.369-.747.038.368.076.69.095.945.019.245.057.472.076.69.018.226.038.482.076.766.018.264.037.557.037.803.086 0 .18 0 .293-.018h.577c.114.018.227.018.285.018-.057-.34-.114-.709-.171-1.068-.038-.368-.095-.662-.114-.907-.038-.246-.076-.652-.132-1.192a66.723 66.723 0 0 1-.198-1.579c-.038 0-.076 0-.114.02h-.094c-.038.018-.076.018-.095.018-.038 0-.095-.019-.152-.019-.085-.019-.122-.019-.142-.019-.114.256-.227.52-.379.832a17.85 17.85 0 0 1-.445.879c-.152.312-.312.614-.482.964-.17.322-.265.52-.303.577a8.238 8.238 0 0 1-.407-.766c-.152-.293-.293-.596-.463-.927-.152-.312-.266-.576-.36-.765a16.002 16.002 0 0 1-.388-.794c-.038 0-.076 0-.095.019h-.095c-.048.019-.085.019-.104.019-.019 0-.057 0-.076-.02h-.094c-.038-.018-.075-.018-.113-.018-.152 1.134-.293 2.08-.389 2.77a48.41 48.41 0 0 1-.321 1.975c.038 0 .094 0 .17-.02.057.003.114.003.152.003z" fill="#000"/><path d="M33.105 89.119c-.757-6.154-5.698-9.359-9.417-9.803v40.137h4.458V89.516h2.725v29.937h4.457V89.516h2.735v29.937h4.449V79.316c-3.72.444-8.65 3.65-9.407 9.803z" fill="#C23C40"/></g></svg>
