<svg xmlns="http://www.w3.org/2000/svg" xmlns:xlink="http://www.w3.org/1999/xlink" preserveAspectRatio="xMidYMid" width="48" height="48" viewBox="0 0 48 48">
  <defs>
    <style>
      .cls-1 {
        fill: #fbfbfb;
      }

      .cls-1, .cls-2 {
        fill-rule: evenodd;
      }

      .cls-2 {
        fill: #555;
      }
    </style>
  </defs>
  <g>
    <path d="M4.000,0.000 L44.000,0.000 C46.209,0.000 48.000,1.791 48.000,4.000 L48.000,44.000 C48.000,46.209 46.209,48.000 44.000,48.000 L4.000,48.000 C1.791,48.000 0.000,46.209 0.000,44.000 L0.000,4.000 C0.000,1.791 1.791,0.000 4.000,0.000 Z" class="cls-1"/>
    <path d="M32.007,8.624 C30.220,8.261 28.845,7.989 26.966,7.989 C21.559,7.989 19.405,10.528 19.405,15.062 L19.405,18.372 L16.014,18.372 L16.014,23.722 L19.405,23.722 L19.405,40.000 L26.004,40.000 L26.004,23.722 L30.816,23.722 L31.274,18.372 L26.004,18.372 L26.004,15.788 C26.004,14.337 26.141,13.430 28.250,13.430 C29.028,13.430 30.266,13.566 31.182,13.747 L32.007,8.624 Z" class="cls-2"/>
  </g>
</svg>

