<svg xmlns="http://www.w3.org/2000/svg" xmlns:xlink="http://www.w3.org/1999/xlink" preserveAspectRatio="xMidYMid" width="48" height="48" viewBox="0 0 48 48">
  <defs>
    <style>
      .cls-1 {
        fill: #fbfbfb;
      }

      .cls-1, .cls-2 {
        fill-rule: evenodd;
      }

      .cls-2 {
        fill: #555;
      }
    </style>
  </defs>
  <g>
    <path d="M4.000,0.000 L44.000,0.000 C46.209,0.000 48.000,1.791 48.000,4.000 L48.000,44.000 C48.000,46.209 46.209,48.000 44.000,48.000 L4.000,48.000 C1.791,48.000 -0.000,46.209 -0.000,44.000 L-0.000,4.000 C-0.000,1.791 1.791,0.000 4.000,0.000 Z" class="cls-1"/>
    <path d="M23.153,33.933 L25.245,33.933 C25.245,33.933 25.877,33.863 26.200,33.514 C26.496,33.194 26.487,32.592 26.487,32.592 C26.487,32.592 26.446,29.777 27.749,29.362 C29.033,28.953 30.683,32.083 32.431,33.287 C33.753,34.198 34.757,33.998 34.757,33.998 L39.432,33.933 C39.432,33.933 41.877,33.782 40.717,31.853 C40.622,31.695 40.042,30.426 37.241,27.819 C34.310,25.090 34.703,25.532 38.234,20.811 C40.384,17.937 41.243,16.182 40.975,15.430 C40.719,14.714 39.137,14.903 39.137,14.903 L33.875,14.936 C33.875,14.936 33.484,14.883 33.195,15.056 C32.912,15.226 32.731,15.623 32.731,15.623 C32.731,15.623 31.897,17.847 30.786,19.739 C28.443,23.731 27.506,23.942 27.123,23.694 C26.231,23.116 26.454,21.373 26.454,20.135 C26.454,16.266 27.039,14.653 25.315,14.236 C24.743,14.097 24.322,14.006 22.859,13.990 C20.981,13.971 19.391,13.996 18.492,14.438 C17.893,14.733 17.431,15.388 17.712,15.426 C18.060,15.472 18.848,15.639 19.266,16.209 C19.805,16.945 19.786,18.598 19.786,18.598 C19.786,18.598 20.096,23.152 19.062,23.718 C18.353,24.106 17.380,23.313 15.291,19.692 C14.220,17.837 13.412,15.786 13.412,15.786 C13.412,15.786 13.256,15.403 12.978,15.198 C12.641,14.949 12.169,14.870 12.169,14.870 L7.168,14.903 C7.168,14.903 6.418,14.924 6.142,15.252 C5.896,15.543 6.122,16.146 6.122,16.146 C6.122,16.146 10.037,25.335 14.471,29.965 C18.537,34.212 23.153,33.933 23.153,33.933 Z" class="cls-2"/>
  </g>
</svg>

